<svg xmlns="http://www.w3.org/2000/svg" width="15" height="12" viewBox="0 0 15 12"><g><g><path fill="#b7b7b7" d="M14.669 11.482a1.2 1.2 0 0 1-1.67.304L8.067 8.373c-.349-.241-.53-.634-.516-1.029a4.329 4.329 0 0 1-2.405 1.31 4.334 4.334 0 0 1-3.265-.704 4.334 4.334 0 0 1-1.81-2.806 4.336 4.336 0 0 1 .704-3.267A4.37 4.37 0 0 1 6.847.772 4.372 4.372 0 0 1 8.284 6.28a1.199 1.199 0 0 1 1.148.12l4.934 3.412a1.2 1.2 0 0 1 .303 1.67zM7.357 3.816A3.02 3.02 0 0 0 6.096 1.86a3.048 3.048 0 0 0-4.235.77 3.047 3.047 0 0 0 .77 4.233c1.38.955 3.28.61 4.235-.77a3.022 3.022 0 0 0 .491-2.277z"/></g></g></svg>